<svg width="26" height="25" viewBox="0 0 26 25" fill="none" xmlns="http://www.w3.org/2000/svg">
<g id="Add circle outline" clip-path="url(#clip0_1765_19715)">
<path id="Vector" d="M14.0413 7.29183H11.958V11.4585H7.79134V13.5418H11.958V17.7085H14.0413V13.5418H18.208V11.4585H14.0413V7.29183ZM12.9997 2.0835C7.24967 2.0835 2.58301 6.75016 2.58301 12.5002C2.58301 18.2502 7.24967 22.9168 12.9997 22.9168C18.7497 22.9168 23.4163 18.2502 23.4163 12.5002C23.4163 6.75016 18.7497 2.0835 12.9997 2.0835ZM12.9997 20.8335C8.40593 20.8335 4.66634 17.0939 4.66634 12.5002C4.66634 7.90641 8.40593 4.16683 12.9997 4.16683C17.5934 4.16683 21.333 7.90641 21.333 12.5002C21.333 17.0939 17.5934 20.8335 12.9997 20.8335Z" fill="white"/>
</g>
<defs>
<clipPath id="clip0_1765_19715">
<rect width="25" height="25" fill="white" transform="translate(0.5)"/>
</clipPath>
</defs>
</svg>
