<svg width="80" height="80" viewBox="0 0 80 80" fill="none" xmlns="http://www.w3.org/2000/svg">
<g id="vuesax/outline/setting-4">
<g id="setting-4">
<path id="Vector" d="M73.3333 24.1665H53.3333C51.9667 24.1665 50.8333 23.0332 50.8333 21.6665C50.8333 20.2998 51.9667 19.1665 53.3333 19.1665H73.3333C74.7 19.1665 75.8333 20.2998 75.8333 21.6665C75.8333 23.0332 74.7 24.1665 73.3333 24.1665Z" fill="#525050"/>
<path id="Vector_2" d="M20 24.1665H6.66666C5.3 24.1665 4.16666 23.0332 4.16666 21.6665C4.16666 20.2998 5.3 19.1665 6.66666 19.1665H20C21.3667 19.1665 22.5 20.2998 22.5 21.6665C22.5 23.0332 21.3667 24.1665 20 24.1665Z" fill="#525050"/>
<path id="Vector_3" d="M33.3333 35.8333C25.5333 35.8333 19.1667 29.4667 19.1667 21.6667C19.1667 13.8667 25.5333 7.5 33.3333 7.5C41.1333 7.5 47.5 13.8667 47.5 21.6667C47.5 29.4667 41.1333 35.8333 33.3333 35.8333ZM33.3333 12.5C28.2667 12.5 24.1667 16.6 24.1667 21.6667C24.1667 26.7333 28.2667 30.8333 33.3333 30.8333C38.4 30.8333 42.5 26.7333 42.5 21.6667C42.5 16.6 38.4 12.5 33.3333 12.5Z" fill="#525050"/>
<path id="Vector_4" d="M73.3333 60.8335H60C58.6333 60.8335 57.5 59.7002 57.5 58.3335C57.5 56.9668 58.6333 55.8335 60 55.8335H73.3333C74.7 55.8335 75.8333 56.9668 75.8333 58.3335C75.8333 59.7002 74.7 60.8335 73.3333 60.8335Z" fill="#525050"/>
<path id="Vector_5" d="M26.6667 60.8335H6.66666C5.3 60.8335 4.16666 59.7002 4.16666 58.3335C4.16666 56.9668 5.3 55.8335 6.66666 55.8335H26.6667C28.0333 55.8335 29.1667 56.9668 29.1667 58.3335C29.1667 59.7002 28.0333 60.8335 26.6667 60.8335Z" fill="#525050"/>
<path id="Vector_6" d="M46.6667 72.4998C38.8667 72.4998 32.5 66.1332 32.5 58.3332C32.5 50.5332 38.8667 44.1665 46.6667 44.1665C54.4667 44.1665 60.8333 50.5332 60.8333 58.3332C60.8333 66.1332 54.4667 72.4998 46.6667 72.4998ZM46.6667 49.1665C41.6 49.1665 37.5 53.2665 37.5 58.3332C37.5 63.3998 41.6 67.4998 46.6667 67.4998C51.7333 67.4998 55.8333 63.3998 55.8333 58.3332C55.8333 53.2665 51.7333 49.1665 46.6667 49.1665Z" fill="#525050"/>
</g>
</g>
</svg>
