<svg width="54" height="50" viewBox="0 0 54 50" fill="none" xmlns="http://www.w3.org/2000/svg">
<rect width="54" height="50" fill="white"/>
<path d="M0 0.00244141H45.5C45.5 0.00244141 46.7124 22.0642 37 31.5029C25.9696 42.2225 0 40 0 40V0.00244141Z" fill="#000582"/>
<circle cx="27" cy="25" r="20" fill="#D8D9FF"/>
<path d="M24.1596 25.1359C24.1296 25.1359 24.1096 25.1359 24.0796 25.1359C24.0296 25.1263 23.9596 25.1263 23.8996 25.1359C20.9996 25.0497 18.8096 22.8647 18.8096 20.1717C18.8096 17.4309 21.1396 15.198 23.9996 15.198C26.8596 15.198 29.1896 17.4309 29.1896 20.1717C29.1796 22.8647 26.9796 25.0497 24.1896 25.1359C24.1796 25.1359 24.1696 25.1359 24.1596 25.1359ZM23.9996 16.6355C21.9696 16.6355 20.3096 18.2263 20.3096 20.1717C20.3096 22.0884 21.8696 23.6313 23.8596 23.6984C23.9196 23.6888 24.0496 23.6888 24.1796 23.6984C26.1396 23.6122 27.6796 22.0692 27.6896 20.1717C27.6896 18.2263 26.0296 16.6355 23.9996 16.6355Z" fill="#003679"/>
<path d="M31.5394 25.2603C31.5094 25.2603 31.4794 25.2603 31.4494 25.2508C31.0394 25.2891 30.6194 25.0112 30.5794 24.6183C30.5394 24.2253 30.7894 23.8708 31.1994 23.8228C31.3194 23.8133 31.4494 23.8133 31.5594 23.8133C33.0194 23.7366 34.1594 22.5866 34.1594 21.1778C34.1594 19.7212 32.9294 18.5424 31.4094 18.5424C30.9994 18.552 30.6594 18.2262 30.6594 17.8333C30.6594 17.4403 30.9994 17.1145 31.4094 17.1145C33.7494 17.1145 35.6594 18.9449 35.6594 21.1874C35.6594 23.3916 33.8594 25.1741 31.5694 25.2603C31.5594 25.2603 31.5494 25.2603 31.5394 25.2603Z" fill="#003679"/>
<path d="M24.1696 35.6103C22.2096 35.6103 20.2396 35.1312 18.7496 34.1728C17.3596 33.2912 16.5996 32.0837 16.5996 30.7708C16.5996 29.4578 17.3596 28.2408 18.7496 27.3495C21.7496 25.4424 26.6096 25.4424 29.5896 27.3495C30.9696 28.2312 31.7396 29.4387 31.7396 30.7516C31.7396 32.0645 30.9796 33.2816 29.5896 34.1728C28.0896 35.1312 26.1296 35.6103 24.1696 35.6103ZM19.5796 28.557C18.6196 29.1703 18.0996 29.9562 18.0996 30.7803C18.0996 31.5949 18.6296 32.3808 19.5796 32.9845C22.0696 34.5849 26.2696 34.5849 28.7596 32.9845C29.7196 32.3712 30.2396 31.5853 30.2396 30.7612C30.2396 29.9466 29.7096 29.1608 28.7596 28.557C26.2696 26.9662 22.0696 26.9662 19.5796 28.557Z" fill="#003679"/>
<path d="M33.3392 33.8854C32.9892 33.8854 32.6792 33.6554 32.6092 33.3104C32.5292 32.9175 32.7892 32.5438 33.1892 32.4575C33.8192 32.3329 34.3992 32.0934 34.8492 31.7579C35.4192 31.3459 35.7292 30.8284 35.7292 30.2821C35.7292 29.7359 35.4192 29.2184 34.8592 28.8159C34.4192 28.49 33.8692 28.26 33.2192 28.1163C32.8192 28.03 32.5592 27.6467 32.6492 27.2538C32.7392 26.8704 33.1392 26.6213 33.5492 26.7075C34.4092 26.8896 35.1592 27.2154 35.7692 27.6659C36.6992 28.3367 37.2292 29.2854 37.2292 30.2821C37.2292 31.2788 36.6892 32.2275 35.7592 32.9079C35.1392 33.3679 34.3592 33.7034 33.4992 33.8663C33.4392 33.8854 33.3892 33.8854 33.3392 33.8854Z" fill="#003679"/>
</svg>
