<svg width="24" height="25" viewBox="0 0 24 25" fill="none" xmlns="http://www.w3.org/2000/svg">
<path d="M11 20.4V4.6C11 3.1 10.36 2.5 8.77 2.5H4.73C3.14 2.5 2.5 3.1 2.5 4.6V20.4C2.5 21.9 3.14 22.5 4.73 22.5H8.77C10.36 22.5 11 21.9 11 20.4Z" fill="white"/>
<path opacity="0.4" d="M21.5 20.14V15.86C21.5 14.56 20.5 13.5 19.27 13.5H15.23C14 13.5 13 14.56 13 15.86V20.14C13 21.44 14 22.5 15.23 22.5H19.27C20.5 22.5 21.5 21.44 21.5 20.14Z" fill="white"/>
<path opacity="0.4" d="M21.5 9.14V4.86C21.5 3.56 20.5 2.5 19.27 2.5H15.23C14 2.5 13 3.56 13 4.86V9.14C13 10.44 14 11.5 15.23 11.5H19.27C20.5 11.5 21.5 10.44 21.5 9.14Z" fill="white"/>
</svg>
