<svg width="80" height="80" viewBox="0 0 80 80" fill="none" xmlns="http://www.w3.org/2000/svg">
<g id="vuesax/outline/shuffle">
<g id="shuffle">
<path id="Vector" d="M18.5342 62.4666C18.5342 62.4666 18.5009 62.4666 18.4675 62.4666L9.96747 62.4333C8.6008 62.4333 7.46747 61.2999 7.46747 59.9333C7.46747 58.5666 8.6008 57.4333 9.96747 57.4333L18.4675 57.4666H18.5008C20.6675 57.4666 22.7009 56.4 23.9009 54.5667L45.2008 22.6333C47.3342 19.4333 50.9008 17.5 54.7675 17.5C54.7675 17.5 54.8009 17.5 54.8342 17.5L70.0008 17.5667C71.3675 17.5667 72.5008 18.7001 72.5008 20.0667C72.5008 21.4334 71.3675 22.5667 70.0008 22.5667L54.8342 22.5H54.8008C52.6342 22.5 50.6009 23.5667 49.4009 25.4L28.1008 57.3334C25.9675 60.5667 22.4008 62.4666 18.5342 62.4666Z" fill="#525050"/>
<path id="Vector_2" d="M63.3332 69.0996C62.6998 69.0996 62.0665 68.8664 61.5665 68.3664C60.5998 67.3997 60.5998 65.7997 61.5665 64.8331L68.2332 58.1664C69.1998 57.1997 70.7998 57.1997 71.7665 58.1664C72.7331 59.1331 72.7331 60.7331 71.7665 61.6997L65.0998 68.3664C64.5998 68.8664 63.9665 69.0996 63.3332 69.0996Z" fill="#525050"/>
<path id="Vector_3" d="M29.6334 31.266C28.8667 31.266 28.1 30.8994 27.6 30.2327L24 25.2327C22.7667 23.5327 20.7333 22.5327 18.7 22.5327L10 22.5661C8.46667 22.5327 7.5 21.4661 7.5 20.0661C7.5 18.6994 8.6 17.5661 10 17.5661L18.7 17.5327C18.7333 17.5327 18.7333 17.5327 18.7667 17.5327C22.4667 17.5327 25.9333 19.3327 28.1 22.2994L31.7 27.2994C32.5 28.4327 32.2667 29.966 31.1333 30.7993C30.6667 31.0993 30.1667 31.266 29.6334 31.266Z" fill="#525050"/>
<path id="Vector_4" d="M54.4 62.4998C50.8667 62.4998 47.4666 60.833 45.3 58.033L41.2333 52.7999C40.4 51.6999 40.6 50.133 41.6666 49.2997C42.7666 48.4664 44.3333 48.6664 45.1666 49.7331L49.2333 54.9664C50.4666 56.5664 52.4333 57.3664 54.4 57.4998L69.9666 57.433C71.3333 57.433 72.4666 58.533 72.4666 59.933C72.4666 61.2997 71.3666 62.433 69.9666 62.433L54.4 62.4998C54.4333 62.4998 54.4 62.4998 54.4 62.4998Z" fill="#525050"/>
<path id="Vector_5" d="M69.9998 22.5666C69.3665 22.5666 68.7332 22.3332 68.2332 21.8332L61.5665 15.1665C60.5998 14.1999 60.5998 12.5999 61.5665 11.6332C62.5332 10.6665 64.1332 10.6665 65.0998 11.6332L71.7665 18.2999C72.7331 19.2665 72.7331 20.8665 71.7665 21.8332C71.2665 22.3332 70.6332 22.5666 69.9998 22.5666Z" fill="#525050"/>
</g>
</g>
</svg>
