<svg width="80" height="80" viewBox="0 0 80 80" fill="none" xmlns="http://www.w3.org/2000/svg">
<g id="vuesax/outline/notification-bing">
<g id="notification-bing">
<path id="Vector" d="M40 35.0663C38.6333 35.0663 37.5 33.933 37.5 32.5663V21.4663C37.5 20.0996 38.6333 18.9663 40 18.9663C41.3667 18.9663 42.5 20.0996 42.5 21.4663V32.5663C42.5 33.9663 41.3667 35.0663 40 35.0663Z" fill="#525050"/>
<path id="Vector_2" d="M40.0666 67.8343C31.4666 67.8343 22.9 66.4676 14.7333 63.7343C11.7 62.7343 9.39996 60.5676 8.39996 57.8343C7.39996 55.1009 7.7333 51.9676 9.36663 49.2343L13.6 42.1676C14.5333 40.6009 15.3666 37.6676 15.3666 35.8343V28.8343C15.3666 15.2009 26.4333 4.13428 40.0666 4.13428C53.7 4.13428 64.7666 15.2009 64.7666 28.8343V35.8343C64.7666 37.6343 65.6 40.6009 66.5333 42.1676L70.7666 49.2343C72.3333 51.8343 72.6 54.9343 71.5666 57.7676C70.5333 60.6009 68.2666 62.7676 65.4 63.7343C57.2333 66.5009 48.6666 67.8343 40.0666 67.8343ZM40.0666 9.16761C29.2 9.16761 20.3666 18.0009 20.3666 28.8676V35.8676C20.3666 38.5676 19.3 42.4676 17.9 44.7676L13.6666 51.8676C12.8 53.3009 12.6 54.8343 13.1 56.1676C13.6 57.5009 14.7333 58.5009 16.3333 59.0343C31.6666 64.1343 48.5333 64.1343 63.8666 59.0343C65.3 58.5676 66.4 57.5009 66.9 56.1009C67.4333 54.7009 67.2666 53.1676 66.5 51.8676L62.2666 44.8009C60.8666 42.5009 59.8 38.6009 59.8 35.9009V28.9009C59.7666 18.0009 50.9333 9.16761 40.0666 9.16761Z" fill="#525050"/>
<path id="Vector_3" d="M40.0001 76.3329C36.4334 76.3329 32.9334 74.8662 30.4001 72.3329C27.8667 69.7996 26.4001 66.2996 26.4001 62.7329H31.4001C31.4001 64.9996 32.3334 67.1996 33.9334 68.7996C35.5334 70.3996 37.7334 71.3329 40.0001 71.3329C44.7334 71.3329 48.6001 67.4662 48.6001 62.7329H53.6001C53.6001 70.2329 47.5001 76.3329 40.0001 76.3329Z" fill="#525050"/>
</g>
</g>
</svg>
