<svg width="54" height="50" viewBox="0 0 54 50" fill="none" xmlns="http://www.w3.org/2000/svg">
<rect width="54" height="50" fill="white"/>
<path d="M0 0.00244141H45.5C45.5 0.00244141 46.7124 22.0642 37 31.5029C25.9696 42.2225 0 40 0 40V0.00244141Z" fill="#000582"/>
<circle cx="27" cy="27" r="20" fill="#D8D9FF"/>
<path d="M34.42 26.75H31C30.59 26.75 30.25 26.41 30.25 26V19.01C30.25 18.27 30.54 17.58 31.06 17.06C31.58 16.54 32.27 16.25 33.01 16.25H33.02C34.27 16.26 35.45 16.75 36.35 17.64C37.25 18.55 37.74 19.75 37.74 21V23.42C37.75 25.41 36.41 26.75 34.42 26.75ZM31.75 25.25H34.42C35.58 25.25 36.25 24.58 36.25 23.42V21C36.25 20.14 35.91 19.32 35.3 18.7C34.69 18.1 33.87 17.76 33.02 17.75C33.02 17.75 33.02 17.75 33.01 17.75C32.68 17.75 32.36 17.88 32.12 18.12C31.88 18.36 31.75 18.67 31.75 19.01V25.25Z" fill="#003679"/>
<path d="M24 38.33C23.53 38.33 23.09 38.15 22.76 37.81L21.1 36.14C21.01 36.05 20.87 36.04 20.77 36.12L19.05 37.4C18.52 37.8 17.82 37.87 17.22 37.57C16.62 37.27 16.25 36.67 16.25 36V21C16.25 17.98 17.98 16.25 21 16.25H33C33.41 16.25 33.75 16.59 33.75 17C33.75 17.41 33.41 17.75 33 17.75C32.31 17.75 31.75 18.31 31.75 19V36C31.75 36.67 31.38 37.27 30.78 37.57C30.18 37.87 29.48 37.81 28.95 37.41L27.24 36.13C27.14 36.05 27 36.07 26.92 36.15L25.24 37.83C24.91 38.15 24.47 38.33 24 38.33ZM20.91 34.57C21.37 34.57 21.82 34.74 22.16 35.09L23.82 36.76C23.88 36.82 23.96 36.83 24 36.83C24.04 36.83 24.12 36.82 24.18 36.76L25.86 35.08C26.48 34.46 27.46 34.4 28.15 34.93L29.85 36.2C29.96 36.28 30.06 36.25 30.11 36.22C30.16 36.19 30.25 36.13 30.25 36V19C30.25 18.55 30.36 18.12 30.55 17.75H21C18.78 17.75 17.75 18.78 17.75 21V36C17.75 36.14 17.84 36.2 17.89 36.23C17.95 36.26 18.05 36.28 18.15 36.2L19.86 34.92C20.17 34.69 20.54 34.57 20.91 34.57Z" fill="#003679"/>
<path d="M27 28.76H24C23.59 28.76 23.25 28.42 23.25 28.01C23.25 27.6 23.59 27.26 24 27.26H27C27.41 27.26 27.75 27.6 27.75 28.01C27.75 28.42 27.41 28.76 27 28.76Z" fill="#003679"/>
<path d="M27 24.76H24C23.59 24.76 23.25 24.42 23.25 24.01C23.25 23.6 23.59 23.26 24 23.26H27C27.41 23.26 27.75 23.6 27.75 24.01C27.75 24.42 27.41 24.76 27 24.76Z" fill="#003679"/>
<path d="M20.9707 25.01C20.4207 25.01 19.9707 24.56 19.9707 24.01C19.9707 23.46 20.4207 23.01 20.9707 23.01C21.5207 23.01 21.9707 23.46 21.9707 24.01C21.9707 24.56 21.5207 25.01 20.9707 25.01Z" fill="#003679"/>
<path d="M20.9707 29.01C20.4207 29.01 19.9707 28.56 19.9707 28.01C19.9707 27.46 20.4207 27.01 20.9707 27.01C21.5207 27.01 21.9707 27.46 21.9707 28.01C21.9707 28.56 21.5207 29.01 20.9707 29.01Z" fill="#003679"/>
</svg>
