<svg width="80" height="80" viewBox="0 0 80 80" fill="none" xmlns="http://www.w3.org/2000/svg">
<g id="vuesax/outline/card">
<g id="card">
<path id="Vector" d="M73.3333 30.8335H6.66666C5.29999 30.8335 4.16666 29.7002 4.16666 28.3335C4.16666 26.9668 5.29999 25.8335 6.66666 25.8335H73.3333C74.7 25.8335 75.8333 26.9668 75.8333 28.3335C75.8333 29.7002 74.7 30.8335 73.3333 30.8335Z" fill="#525050"/>
<path id="Vector_2" d="M26.6667 57.5H20C18.6333 57.5 17.5 56.3667 17.5 55C17.5 53.6333 18.6333 52.5 20 52.5H26.6667C28.0333 52.5 29.1667 53.6333 29.1667 55C29.1667 56.3667 28.0333 57.5 26.6667 57.5Z" fill="#525050"/>
<path id="Vector_3" d="M48.3333 57.5H35C33.6333 57.5 32.5 56.3667 32.5 55C32.5 53.6333 33.6333 52.5 35 52.5H48.3333C49.7 52.5 50.8333 53.6333 50.8333 55C50.8333 56.3667 49.7 57.5 48.3333 57.5Z" fill="#525050"/>
<path id="Vector_4" d="M58.5333 70.8332H21.4667C8.19999 70.8332 4.16666 66.8332 4.16666 53.6998V26.2998C4.16666 13.1665 8.19999 9.1665 21.4667 9.1665H58.5C71.7667 9.1665 75.8 13.1665 75.8 26.2998V53.6665C75.8333 66.8332 71.8 70.8332 58.5333 70.8332ZM21.4667 14.1665C11 14.1665 9.16666 15.9665 9.16666 26.2998V53.6665C9.16666 63.9998 11 65.7998 21.4667 65.7998H58.5C68.9667 65.7998 70.8 63.9998 70.8 53.6665V26.2998C70.8 15.9665 68.9667 14.1665 58.5 14.1665H21.4667Z" fill="#525050"/>
</g>
</g>
</svg>
