<svg width="24" height="25" viewBox="0 0 24 25" fill="none" xmlns="http://www.w3.org/2000/svg">
<path opacity="0.4" d="M20 7.54V17.46C20 18.98 19.86 20.06 19.5 20.83C19.5 20.84 19.49 20.86 19.48 20.87C19.26 21.15 18.97 21.29 18.63 21.29C18.1 21.29 17.46 20.94 16.77 20.2C15.95 19.32 14.69 19.39 13.97 20.35L12.96 21.69C12.56 22.23 12.03 22.5 11.5 22.5C10.97 22.5 10.44 22.23 10.04 21.69L9.02002 20.34C8.31002 19.39 7.05999 19.32 6.23999 20.19L6.22998 20.2C5.09998 21.41 4.10002 21.59 3.52002 20.87C3.51002 20.86 3.5 20.84 3.5 20.83C3.14 20.06 3 18.98 3 17.46V7.54C3 6.02 3.14 4.94 3.5 4.17C3.5 4.16 3.50002 4.15 3.52002 4.14C4.09002 3.41 5.09998 3.59 6.22998 4.8L6.23999 4.81C7.05999 5.68 8.31002 5.61 9.02002 4.66L10.04 3.31C10.44 2.77 10.97 2.5 11.5 2.5C12.03 2.5 12.56 2.77 12.96 3.31L13.97 4.65C14.69 5.61 15.95 5.68 16.77 4.8C17.46 4.06 18.1 3.71 18.63 3.71C18.97 3.71 19.26 3.86 19.48 4.14C19.5 4.15 19.5 4.16 19.5 4.17C19.86 4.94 20 6.02 20 7.54Z" fill="white"/>
<path d="M16 11.5H8C7.59 11.5 7.25 11.16 7.25 10.75C7.25 10.34 7.59 10 8 10H16C16.41 10 16.75 10.34 16.75 10.75C16.75 11.16 16.41 11.5 16 11.5Z" fill="white"/>
<path d="M14 15H8C7.59 15 7.25 14.66 7.25 14.25C7.25 13.84 7.59 13.5 8 13.5H14C14.41 13.5 14.75 13.84 14.75 14.25C14.75 14.66 14.41 15 14 15Z" fill="white"/>
</svg>
