<svg width="54" height="50" viewBox="0 0 54 50" fill="none" xmlns="http://www.w3.org/2000/svg">
<rect width="54" height="50" fill="white"/>
<path d="M0 0.00244141H45.5C45.5 0.00244141 46.7124 22.0642 37 31.5029C25.9696 42.2225 0 40 0 40V0.00244141Z" fill="#000582"/>
<circle cx="27" cy="27" r="20" fill="#D8D9FF"/>
<path d="M36 37.75H18C17.59 37.75 17.25 37.41 17.25 37C17.25 36.59 17.59 36.25 18 36.25H36C36.41 36.25 36.75 36.59 36.75 37C36.75 37.41 36.41 37.75 36 37.75Z" fill="#003679"/>
<path d="M20.6 34.7499H19C18.04 34.7499 17.25 33.9599 17.25 32.9999V24.3799C17.25 23.4199 18.04 22.6299 19 22.6299H20.6C21.56 22.6299 22.35 23.4199 22.35 24.3799V32.9999C22.35 33.9599 21.56 34.7499 20.6 34.7499ZM19 24.1199C18.86 24.1199 18.75 24.2299 18.75 24.3699V32.9999C18.75 33.1399 18.86 33.2499 19 33.2499H20.6C20.74 33.2499 20.85 33.1399 20.85 32.9999V24.3799C20.85 24.2399 20.74 24.1299 20.6 24.1299H19V24.1199Z" fill="#003679"/>
<path d="M27.8002 34.7499H26.2002C25.2402 34.7499 24.4502 33.9599 24.4502 32.9999V21.1899C24.4502 20.2299 25.2402 19.4399 26.2002 19.4399H27.8002C28.7602 19.4399 29.5502 20.2299 29.5502 21.1899V32.9999C29.5502 33.9599 28.7602 34.7499 27.8002 34.7499ZM26.2002 20.9399C26.0602 20.9399 25.9502 21.0499 25.9502 21.1899V32.9999C25.9502 33.1399 26.0602 33.2499 26.2002 33.2499H27.8002C27.9402 33.2499 28.0502 33.1399 28.0502 32.9999V21.1899C28.0502 21.0499 27.9402 20.9399 27.8002 20.9399H26.2002Z" fill="#003679"/>
<path d="M35.0004 34.75H33.4004C32.4404 34.75 31.6504 33.96 31.6504 33V18C31.6504 17.04 32.4404 16.25 33.4004 16.25H35.0004C35.9604 16.25 36.7504 17.04 36.7504 18V33C36.7504 33.96 35.9604 34.75 35.0004 34.75ZM33.4004 17.75C33.2604 17.75 33.1504 17.86 33.1504 18V33C33.1504 33.14 33.2604 33.25 33.4004 33.25H35.0004C35.1404 33.25 35.2504 33.14 35.2504 33V18C35.2504 17.86 35.1404 17.75 35.0004 17.75H33.4004Z" fill="#003679"/>
</svg>
