<svg width="80" height="80" viewBox="0 0 80 80" fill="none" xmlns="http://www.w3.org/2000/svg">
<g id="vuesax/outline/security-safe">
<g id="security-safe">
<path id="Vector" d="M39.9995 75.8329C39.1995 75.8329 38.3995 75.7329 37.6329 75.4996C20.3329 70.7329 7.7995 54.5662 7.7995 37.0328V22.3994C7.7995 18.6661 10.4995 14.6329 13.9662 13.1996L32.5329 5.59951C37.3662 3.63285 42.6661 3.63285 47.4661 5.59951L66.0328 13.1996C69.4995 14.6329 72.1995 18.6661 72.1995 22.3994V37.0328C72.1995 54.5328 59.6328 70.6996 42.3661 75.4996C41.5995 75.7329 40.7995 75.8329 39.9995 75.8329ZM39.9995 9.1662C38.0995 9.1662 36.2328 9.53293 34.4328 10.2663L15.8662 17.8662C14.2662 18.5328 12.7995 20.6995 12.7995 22.4328V37.0662C12.7995 52.3662 23.7995 66.4996 38.9662 70.6996C39.6329 70.8996 40.3662 70.8996 41.0328 70.6996C56.1995 66.4996 67.1995 52.3662 67.1995 37.0662V22.4328C67.1995 20.6995 65.7328 18.5328 64.1328 17.8662L45.5662 10.2663C43.7662 9.53293 41.8995 9.1662 39.9995 9.1662Z" fill="#525050"/>
<path id="Vector_2" d="M40 44.1668C34.9333 44.1668 30.8333 40.0668 30.8333 35.0002C30.8333 29.9335 34.9333 25.8335 40 25.8335C45.0666 25.8335 49.1666 29.9335 49.1666 35.0002C49.1666 40.0668 45.0666 44.1668 40 44.1668ZM40 30.8335C37.7 30.8335 35.8333 32.7002 35.8333 35.0002C35.8333 37.3002 37.7 39.1668 40 39.1668C42.3 39.1668 44.1666 37.3002 44.1666 35.0002C44.1666 32.7002 42.3 30.8335 40 30.8335Z" fill="#525050"/>
<path id="Vector_3" d="M40 54.1665C38.6333 54.1665 37.5 53.0332 37.5 51.6665V41.6665C37.5 40.2998 38.6333 39.1665 40 39.1665C41.3667 39.1665 42.5 40.2998 42.5 41.6665V51.6665C42.5 53.0332 41.3667 54.1665 40 54.1665Z" fill="#525050"/>
</g>
</g>
</svg>
