<svg width="24" height="25" viewBox="0 0 24 25" fill="none" xmlns="http://www.w3.org/2000/svg">
<path opacity="0.4" d="M2 13.3801V11.6201C2 10.5801 2.85 9.72006 3.9 9.72006C5.71 9.72006 6.45 8.44006 5.54 6.87006C5.02 5.97006 5.33 4.80006 6.24 4.28006L7.97 3.29006C8.76 2.82006 9.78 3.10006 10.25 3.89006L10.36 4.08006C11.26 5.65006 12.74 5.65006 13.65 4.08006L13.76 3.89006C14.23 3.10006 15.25 2.82006 16.04 3.29006L17.77 4.28006C18.68 4.80006 18.99 5.97006 18.47 6.87006C17.56 8.44006 18.3 9.72006 20.11 9.72006C21.15 9.72006 22.01 10.5701 22.01 11.6201V13.3801C22.01 14.4201 21.16 15.2801 20.11 15.2801C18.3 15.2801 17.56 16.5601 18.47 18.1301C18.99 19.0401 18.68 20.2001 17.77 20.7201L16.04 21.7101C15.25 22.1801 14.23 21.9001 13.76 21.1101L13.65 20.9201C12.75 19.3501 11.27 19.3501 10.36 20.9201L10.25 21.1101C9.78 21.9001 8.76 22.1801 7.97 21.7101L6.24 20.7201C5.33 20.2001 5.02 19.0301 5.54 18.1301C6.45 16.5601 5.71 15.2801 3.9 15.2801C2.85 15.2801 2 14.4201 2 13.3801Z" fill="white"/>
<path d="M12 15.75C13.7949 15.75 15.25 14.2949 15.25 12.5C15.25 10.7051 13.7949 9.25 12 9.25C10.2051 9.25 8.75 10.7051 8.75 12.5C8.75 14.2949 10.2051 15.75 12 15.75Z" fill="white"/>
</svg>
