<svg width="54" height="50" viewBox="0 0 54 50" fill="none" xmlns="http://www.w3.org/2000/svg">
<rect width="54" height="50" fill="white"/>
<path d="M0 0.00244141H45.5C45.5 0.00244141 46.7124 22.0642 37 31.5029C25.9696 42.2225 0 40 0 40V0.00244141Z" fill="#000582"/>
<circle cx="27" cy="27" r="20" fill="#D8D9FF"/>
<path d="M20.1899 21.3799C19.9999 21.3799 19.7999 21.2999 19.6599 21.1599C19.3699 20.8699 19.3699 20.3899 19.6599 20.0999L23.2899 16.4699C23.5799 16.1799 24.0599 16.1799 24.3499 16.4699C24.6399 16.7599 24.6399 17.2399 24.3499 17.5299L20.7199 21.1599C20.5699 21.2999 20.3799 21.3799 20.1899 21.3799Z" fill="#003679"/>
<path d="M33.8101 21.3799C33.6201 21.3799 33.4301 21.3099 33.2801 21.1599L29.6501 17.5299C29.3601 17.2399 29.3601 16.7599 29.6501 16.4699C29.9401 16.1799 30.4201 16.1799 30.7101 16.4699L34.3401 20.0999C34.6301 20.3899 34.6301 20.8699 34.3401 21.1599C34.2001 21.2999 34.0001 21.3799 33.8101 21.3799Z" fill="#003679"/>
<path d="M35.21 25.6001C35.14 25.6001 35.07 25.6001 35 25.6001H34.77H19C18.3 25.6101 17.5 25.6101 16.92 25.0301C16.46 24.5801 16.25 23.8801 16.25 22.8501C16.25 20.1001 18.26 20.1001 19.22 20.1001H34.78C35.74 20.1001 37.75 20.1001 37.75 22.8501C37.75 23.8901 37.54 24.5801 37.08 25.0301C36.56 25.5501 35.86 25.6001 35.21 25.6001ZM19.22 24.1001H35.01C35.46 24.1101 35.88 24.1101 36.02 23.9701C36.09 23.9001 36.24 23.6601 36.24 22.8501C36.24 21.7201 35.96 21.6001 34.77 21.6001H19.22C18.03 21.6001 17.75 21.7201 17.75 22.8501C17.75 23.6601 17.91 23.9001 17.97 23.9701C18.11 24.1001 18.54 24.1001 18.98 24.1001H19.22Z" fill="#003679"/>
<path d="M24.7598 33.3C24.3498 33.3 24.0098 32.96 24.0098 32.55V29C24.0098 28.59 24.3498 28.25 24.7598 28.25C25.1698 28.25 25.5098 28.59 25.5098 29V32.55C25.5098 32.97 25.1698 33.3 24.7598 33.3Z" fill="#003679"/>
<path d="M29.3604 33.3C28.9504 33.3 28.6104 32.96 28.6104 32.55V29C28.6104 28.59 28.9504 28.25 29.3604 28.25C29.7704 28.25 30.1104 28.59 30.1104 29V32.55C30.1104 32.97 29.7704 33.3 29.3604 33.3Z" fill="#003679"/>
<path d="M29.8898 37.75H23.8598C20.2798 37.75 19.4798 35.62 19.1698 33.77L17.7598 25.12C17.6898 24.71 17.9698 24.33 18.3798 24.26C18.7898 24.19 19.1698 24.47 19.2398 24.88L20.6498 33.52C20.9398 35.29 21.5398 36.25 23.8598 36.25H29.8898C32.4598 36.25 32.7498 35.35 33.0798 33.61L34.7598 24.86C34.8398 24.45 35.2298 24.18 35.6398 24.27C36.0498 24.35 36.3098 24.74 36.2298 25.15L34.5498 33.9C34.1598 35.93 33.5098 37.75 29.8898 37.75Z" fill="#003679"/>
</svg>
