<svg width="80" height="80" viewBox="0 0 80 80" fill="none" xmlns="http://www.w3.org/2000/svg">
<g id="vuesax/outline/3square">
<g id="3square">
<path id="Vector" d="M31.2333 75.8333H15.4C7.73333 75.8333 4.16666 72.2667 4.16666 64.6V48.7667C4.16666 41.0667 7.73333 37.5 15.4 37.5H23.3333C24.7 37.5 25.8333 38.6333 25.8333 40V47.9C25.8333 52.7667 27.2333 54.1667 32.0667 54.1667H40C41.3667 54.1667 42.5 55.3 42.5 56.6667V64.6C42.5 72.2667 38.9333 75.8333 31.2333 75.8333ZM15.4 42.5C10.5667 42.5 9.16666 43.9 9.16666 48.7667V64.6C9.16666 69.4333 10.5667 70.8333 15.4 70.8333H31.2333C36.1 70.8333 37.5 69.4333 37.5 64.6V59.1667H32.0667C24.4 59.1667 20.8333 55.6 20.8333 47.9V42.5H15.4Z" fill="#525050"/>
<path id="Vector_2" d="M47.9 59.1668H32.0667C24.4 59.1668 20.8333 55.6002 20.8333 47.9002V32.0668C20.8333 24.4002 24.4 20.8335 32.0667 20.8335H40C41.3667 20.8335 42.5 21.9668 42.5 23.3335V31.2335C42.5 36.1002 43.9 37.5002 48.7333 37.5002H56.6667C58.0333 37.5002 59.1667 38.6335 59.1667 40.0002V47.9002C59.1667 55.6002 55.6 59.1668 47.9 59.1668ZM32.0667 25.8335C27.2333 25.8335 25.8333 27.2335 25.8333 32.0668V47.9002C25.8333 52.7668 27.2333 54.1668 32.0667 54.1668H47.9C52.7667 54.1668 54.1667 52.7668 54.1667 47.9002V42.5002H48.7333C41.0667 42.5002 37.5 38.9335 37.5 31.2335V25.8335H32.0667Z" fill="#525050"/>
<path id="Vector_3" d="M64.5667 42.4998H48.7333C41.0667 42.4998 37.5 38.9332 37.5 31.2332V15.3998C37.5 7.73317 41.0667 4.1665 48.7333 4.1665H64.5667C72.2667 4.1665 75.8333 7.73317 75.8333 15.3998V31.2332C75.8333 38.9332 72.2667 42.4998 64.5667 42.4998ZM48.7333 9.1665C43.9 9.1665 42.5 10.5665 42.5 15.3998V31.2332C42.5 36.0998 43.9 37.4998 48.7333 37.4998H64.5667C69.4333 37.4998 70.8333 36.0998 70.8333 31.2332V15.3998C70.8333 10.5665 69.4333 9.1665 64.5667 9.1665H48.7333Z" fill="#525050"/>
</g>
</g>
</svg>
