<svg width="99" height="53" viewBox="0 0 99 53" fill="none" xmlns="http://www.w3.org/2000/svg">
<path d="M35.9486 0.879761V3.15328H26.7648V24.8261H24.4618V3.15328H15.2793V0.879761H35.9486Z" fill="#D3B973"/>
<path d="M37.8086 0.879761H62.0215V24.8261H59.7467V3.15328H51.0371V23.8521H48.793V3.15328H40.0821V24.8261H37.8086V0.879761Z" fill="#D3B973"/>
<path d="M67.7199 12.7498H82.2479V24.8261H65.3579V22.6705H79.9743V14.9348H65.4758V0.879761H82.2479V3.06485H67.7199V12.7498Z" fill="#D3B973"/>
<path d="M0 33.29H1.51611V38.9392H2.15946V33.29H3.67429V32.6927H0V33.29Z" fill="white"/>
<path d="M6.93547 36.6605L8.0748 33.7859L9.20387 36.6605H6.93547ZM10.8123 38.9571L8.0748 32.2788L5.32837 38.9571H6.02555L6.6971 37.2577H9.44352L10.1138 38.9571H10.8123Z" fill="white"/>
<path d="M14.697 36.0171C15.5057 36.2106 16.0568 36.4221 16.3502 36.6605C16.5527 36.8258 16.654 37.0372 16.654 37.2948C16.654 37.5511 16.5989 37.7626 16.4887 37.91C16.2131 38.2957 15.7171 38.488 15.0187 38.488C14.0447 38.488 13.4936 38.1573 13.3744 37.496H12.6208C12.8413 38.5533 13.641 39.0762 15.0187 39.0762C15.6338 39.0762 16.1478 38.9481 16.5617 38.6725C17.0577 38.3509 17.3153 37.8728 17.3153 37.2487C17.3153 36.7335 17.1128 36.3388 16.7091 36.0632C16.4233 35.862 15.9645 35.6775 15.3314 35.5122C14.688 35.3468 14.2741 35.2097 14.0819 35.1085C13.6589 34.897 13.4475 34.6035 13.4564 34.2178C13.4564 34.0153 13.4936 33.841 13.5859 33.7115C13.8243 33.354 14.2472 33.1707 14.8534 33.1707C15.7069 33.1707 16.1939 33.4462 16.3233 33.9781H17.0205C16.7911 33.0784 16.0657 32.6196 14.8534 32.6196C14.3023 32.6196 13.8153 32.7657 13.4116 33.0605C12.9976 33.354 12.7862 33.7859 12.7862 34.3728C12.7862 35.1725 13.4295 35.7236 14.697 36.0171Z" fill="white"/>
<path d="M20.2632 38.957V36.0273L22.3675 38.957H23.1941L20.8975 35.8338L23.1941 32.7106H22.3675L20.2632 35.6505V32.7106H19.6211V38.957H20.2632Z" fill="white"/>
<path d="M34.9686 38.9571H35.621L34.1702 32.298L32.1222 37.6434L30.073 32.298L28.6133 38.9571H29.2746L30.2383 34.5113L32.1222 39.3249L33.9959 34.5113L34.9686 38.9571Z" fill="white"/>
<path d="M38.7905 36.6605L39.9298 33.7859L41.0588 36.6605H38.7905ZM42.6672 38.9571L39.9298 32.2788L37.1833 38.9571H37.8805L38.5521 37.2577H41.2985L41.9688 38.9571H42.6672Z" fill="white"/>
<path d="M45.4678 34.3549L48.9767 39.3428V32.7106H48.3334V37.3038L44.8257 32.3159V38.9571H45.4678V34.3549Z" fill="white"/>
<path d="M52.7431 36.6605L53.8824 33.7859L55.0115 36.6605H52.7431ZM56.6199 38.9571L53.8824 32.2788L51.136 38.9571H51.8332L52.5047 37.2577H55.2511L55.9214 38.9571H56.6199Z" fill="white"/>
<path d="M64.9413 36.0363H61.69V36.5964H64.2249C64.0314 37.1385 63.7097 37.5793 63.2509 37.901C62.7921 38.2317 62.2769 38.388 61.7169 38.388C61.0005 38.388 60.3943 38.1394 59.8894 37.6344C59.3934 37.1295 59.1448 36.5131 59.1448 35.8069C59.1448 35.0995 59.3934 34.4933 59.8983 33.9871C60.3943 33.4911 61.0005 33.2348 61.7169 33.2348C62.25 33.2348 62.737 33.3911 63.1689 33.6936C63.6098 33.9973 63.9212 34.3921 64.1237 34.897H64.8029C64.5915 34.2075 64.1967 33.6564 63.6277 33.2348C63.0587 32.8119 62.3961 32.5914 61.6528 32.5914C61.2491 32.5914 60.8531 32.6837 60.4673 32.849C60.0726 33.0144 59.733 33.2438 59.4395 33.5372C59.1448 33.832 58.9154 34.1716 58.75 34.5574C58.5847 34.9521 58.5027 35.375 58.5027 35.8159C58.5027 36.2567 58.5847 36.6784 58.75 37.0654C58.9154 37.4602 59.1448 37.7998 59.4395 38.0933C59.733 38.388 60.0726 38.6174 60.4673 38.7827C60.8531 38.9481 61.276 39.0301 61.7169 39.0301C62.4705 39.0301 63.1497 38.7917 63.7559 38.3047C64.3621 37.8087 64.7389 37.1846 64.8773 36.4221L64.9413 36.0363Z" fill="white"/>
<path d="M71.1318 38.957V38.3598H68.0637V36.1375H71.0395V35.5313H68.0637V33.3078H71.1318V32.7106H67.4216V38.957H71.1318Z" fill="white"/>
<path d="M79.6464 38.9571H80.2987L78.8479 32.298L76.8 37.6434L74.7507 32.298L73.291 38.9571H73.9523L74.9161 34.5113L76.8 39.3249L78.6737 34.5113L79.6464 38.9571Z" fill="white"/>
<path d="M86.1682 38.957V38.3598H83.1001V36.1375H86.0759V35.5313H83.1001V33.3078H86.1682V32.7106H82.458V38.957H86.1682Z" fill="white"/>
<path d="M89.5666 34.3549L93.0756 39.3428V32.7106H92.4322V37.3038L88.9246 32.3159V38.9571H89.5666V34.3549Z" fill="white"/>
<path d="M95.3257 33.29H96.8418V38.9392H97.4851V33.29H99V32.6927H95.3257V33.29Z" fill="white"/>
<path d="M32.26 48.8124C33.0687 49.0059 33.6198 49.2174 33.9132 49.4557C34.1157 49.6211 34.217 49.8325 34.217 50.0901C34.217 50.3464 34.1619 50.5579 34.0516 50.7053C33.7761 51.091 33.2801 51.2833 32.5817 51.2833C31.6077 51.2833 31.0566 50.9526 30.9374 50.2913H30.1838C30.4043 51.3486 31.204 51.8715 32.5817 51.8715C33.1968 51.8715 33.7107 51.7434 34.1247 51.4678C34.6207 51.1461 34.8783 50.6681 34.8783 50.044C34.8783 49.5288 34.6758 49.1341 34.2721 48.8585C33.9863 48.6573 33.5275 48.4728 32.8944 48.3074C32.251 48.1421 31.8371 48.005 31.6448 47.9037C31.2219 47.6923 31.0105 47.3988 31.0194 47.013C31.0194 46.8106 31.0566 46.6363 31.1489 46.5068C31.3872 46.1493 31.8102 45.966 32.4164 45.966C33.2699 45.966 33.7569 46.2415 33.8863 46.7734H34.5835C34.3541 45.8737 33.6287 45.4149 32.4164 45.4149C31.8653 45.4149 31.3783 45.561 30.9746 45.8558C30.5606 46.1493 30.3492 46.5812 30.3492 47.1681C30.3492 47.9678 30.9925 48.5189 32.26 48.8124Z" fill="white"/>
<path d="M39.5997 48.8123L41.9603 45.5059H41.1427L39.278 48.1792L37.4133 45.5059H36.5867L38.9563 48.8226V51.7523H39.5997V48.8123Z" fill="white"/>
<path d="M45.8452 48.8124C46.6539 49.0059 47.205 49.2174 47.4984 49.4557C47.7009 49.6211 47.8022 49.8325 47.8022 50.0901C47.8022 50.3464 47.7471 50.5579 47.6369 50.7053C47.3613 51.091 46.8653 51.2833 46.1669 51.2833C45.1929 51.2833 44.6418 50.9526 44.5226 50.2913H43.769C43.9895 51.3486 44.7892 51.8715 46.1669 51.8715C46.782 51.8715 47.296 51.7434 47.7099 51.4678C48.2059 51.1461 48.4635 50.6681 48.4635 50.044C48.4635 49.5288 48.261 49.1341 47.8573 48.8585C47.5715 48.6573 47.1127 48.4728 46.4796 48.3074C45.8362 48.1421 45.4223 48.005 45.23 47.9037C44.8071 47.6923 44.5957 47.3988 44.6046 47.013C44.6046 46.8106 44.6418 46.6363 44.7341 46.5068C44.9724 46.1493 45.3954 45.966 46.0016 45.966C46.8551 45.966 47.3421 46.2415 47.4715 46.7734H48.1687C47.9393 45.8737 47.2139 45.4149 46.0016 45.4149C45.4505 45.4149 44.9635 45.561 44.5598 45.8558C44.1458 46.1493 43.9344 46.5812 43.9344 47.1681C43.9344 47.9678 44.5777 48.5189 45.8452 48.8124Z" fill="white"/>
<path d="M50.2627 46.0853H51.7788V51.7345H52.4222V46.0853H53.937V45.488H50.2627V46.0853Z" fill="white"/>
<path d="M59.8987 51.7523V51.1551H56.8305V48.9328H59.8064V48.3266H56.8305V46.1031H59.8987V45.5059H56.1885V51.7523H59.8987Z" fill="white"/>
<path d="M68.413 51.7524H69.0653L67.6145 45.0933L65.5666 50.4387L63.5173 45.0933L62.0576 51.7524H62.7189L63.6827 47.3066L65.5666 52.1202L67.4403 47.3066L68.413 51.7524Z" fill="white"/>
</svg>
