<svg width="25" height="25" viewBox="0 0 25 25" fill="none" xmlns="http://www.w3.org/2000/svg">
<g id="vuesax/outline/trash">
<g id="trash">
<path id="Vector" d="M21.4997 7.22998C21.4797 7.22998 21.4497 7.22998 21.4197 7.22998C16.1297 6.69998 10.8497 6.49998 5.61967 7.02998L3.57967 7.22998C3.15967 7.26998 2.78967 6.96998 2.74967 6.54998C2.70967 6.12998 3.00967 5.76998 3.41967 5.72998L5.45967 5.52998C10.7797 4.98998 16.1697 5.19998 21.5697 5.72998C21.9797 5.76998 22.2797 6.13998 22.2397 6.54998C22.2097 6.93998 21.8797 7.22998 21.4997 7.22998Z" fill="white"/>
<path id="Vector_2" d="M8.99977 6.22C8.95977 6.22 8.91977 6.22 8.86977 6.21C8.46977 6.14 8.18977 5.75 8.25977 5.35L8.47977 4.04C8.63977 3.08 8.85977 1.75 11.1898 1.75H13.8098C16.1498 1.75 16.3698 3.13 16.5198 4.05L16.7398 5.35C16.8098 5.76 16.5298 6.15 16.1298 6.21C15.7198 6.28 15.3298 6 15.2698 5.6L15.0498 4.3C14.9098 3.43 14.8798 3.26 13.8198 3.26H11.1998C10.1398 3.26 10.1198 3.4 9.96977 4.29L9.73977 5.59C9.67977 5.96 9.35977 6.22 8.99977 6.22Z" fill="white"/>
<path id="Vector_3" d="M15.7104 23.2501H9.29039C5.80039 23.2501 5.66039 21.3201 5.55039 19.7601L4.90039 9.69007C4.87039 9.28007 5.19039 8.92008 5.60039 8.89008C6.02039 8.87008 6.37039 9.18008 6.40039 9.59008L7.05039 19.6601C7.16039 21.1801 7.20039 21.7501 9.29039 21.7501H15.7104C17.8104 21.7501 17.8504 21.1801 17.9504 19.6601L18.6004 9.59008C18.6304 9.18008 18.9904 8.87008 19.4004 8.89008C19.8104 8.92008 20.1304 9.27007 20.1004 9.69007L19.4504 19.7601C19.3404 21.3201 19.2004 23.2501 15.7104 23.2501Z" fill="white"/>
<path id="Vector_4" d="M14.1601 17.75H10.8301C10.4201 17.75 10.0801 17.41 10.0801 17C10.0801 16.59 10.4201 16.25 10.8301 16.25H14.1601C14.5701 16.25 14.9101 16.59 14.9101 17C14.9101 17.41 14.5701 17.75 14.1601 17.75Z" fill="white"/>
<path id="Vector_5" d="M15 13.75H10C9.59 13.75 9.25 13.41 9.25 13C9.25 12.59 9.59 12.25 10 12.25H15C15.41 12.25 15.75 12.59 15.75 13C15.75 13.41 15.41 13.75 15 13.75Z" fill="white"/>
</g>
</g>
</svg>
